<svg width="63" height="83" viewBox="0 0 63 83" fill="none" xmlns="http://www.w3.org/2000/svg">
<g filter="url(#filter0_d)">
<ellipse cx="31.5002" cy="28.1848" rx="27.5" ry="28.1848" fill="#0066CC"/>
<path d="M30.841 74.8521L6.18822 38.7404L56.8158 39.7273L30.841 74.8521Z" fill="#0066CC"/>
<g clip-path="url(#clip0)">
<path d="M43.231 22.8751C42.2333 22.8704 41.2792 23.0886 40.4013 23.489L35.6677 14.4447C35.5365 14.194 35.3535 13.9871 35.1361 13.8437C34.9186 13.7003 34.6739 13.625 34.4251 13.625H30.5251C29.9866 13.625 29.5501 14.1426 29.5501 14.7812V15.9375C29.5501 16.5761 29.9866 17.0938 30.5251 17.0938H33.6115L34.5192 18.8281H27.6001V17.6719C27.6001 17.0333 27.1636 16.5156 26.6251 16.5156H21.2956C20.4765 16.5156 19.7858 17.3105 19.8004 18.2816C19.8146 19.2242 20.4632 19.9844 21.2626 19.9844H24.2319L22.4393 23.4184C21.6207 23.0694 20.7389 22.8777 19.8195 22.875C15.5401 22.8627 12.0251 26.995 12.0001 32.0698C11.9748 37.2038 15.4768 41.375 19.8001 41.375C23.4346 41.375 26.4885 38.4271 27.3544 34.4375H30.5251C30.7742 34.4375 31.0192 34.362 31.2368 34.2183C31.4545 34.0745 31.6375 33.8672 31.7686 33.6161L37.0069 23.581L37.9172 25.3203C36.3661 27.0147 35.3953 29.4452 35.4001 32.1448C35.4089 37.1191 38.9283 41.3262 43.1226 41.3745C47.4252 41.424 50.9337 37.3419 50.9991 32.2693C51.0653 27.1427 47.5545 22.895 43.231 22.8751V22.8751ZM23.3801 28.2062C23.9728 28.9671 24.3961 29.9161 24.577 30.9688H21.9381L23.3801 28.2062ZM19.8001 37.9062C17.1121 37.9062 14.9251 35.3128 14.9251 32.125C14.9251 28.9372 17.1121 26.3438 19.8001 26.3438C20.1578 26.3438 20.5062 26.3909 20.8421 26.4781L18.0691 31.7903C17.467 32.9436 18.1677 34.4375 19.3126 34.4375H24.2669C23.5131 36.4772 21.7951 37.9062 19.8001 37.9062ZM29.7104 30.9688H27.5396C27.2983 28.6739 26.3479 26.6405 24.9569 25.1856L26.4648 22.2969H34.2372L29.7104 30.9688ZM42.9373 37.898C40.4367 37.7416 38.425 35.3187 38.3288 32.3513C38.2793 30.8249 38.733 29.4232 39.507 28.3576L42.2147 33.5309C42.4986 34.0734 43.0997 34.2402 43.5572 33.9035L44.3856 33.2938C44.8431 32.957 44.9838 32.2442 44.6998 31.7016L41.99 26.5243C42.3854 26.4042 42.792 26.3436 43.2001 26.3438C45.8882 26.3438 48.0751 28.9373 48.0751 32.1251C48.0751 35.416 45.7442 38.0737 42.9373 37.898V37.898Z" fill="white"/>
</g>
</g>
<defs>
<filter id="filter0_d" x="0.000244141" y="0" width="63" height="82.8522" filterUnits="userSpaceOnUse" color-interpolation-filters="sRGB">
<feFlood flood-opacity="0" result="BackgroundImageFix"/>
<feColorMatrix in="SourceAlpha" type="matrix" values="0 0 0 0 0 0 0 0 0 0 0 0 0 0 0 0 0 0 127 0"/>
<feOffset dy="4"/>
<feGaussianBlur stdDeviation="2"/>
<feColorMatrix type="matrix" values="0 0 0 0 0 0 0 0 0 0 0 0 0 0 0 0 0 0 0.25 0"/>
<feBlend mode="normal" in2="BackgroundImageFix" result="effect1_dropShadow"/>
<feBlend mode="normal" in="SourceGraphic" in2="effect1_dropShadow" result="shape"/>
</filter>
<clipPath id="clip0">
<rect width="39" height="37" fill="white" transform="translate(12 9)"/>
</clipPath>
</defs>
</svg>
