<svg width="27" height="30" viewBox="0 0 27 30" fill="none" xmlns="http://www.w3.org/2000/svg">
<g clip-path="url(#clip0)">
<g filter="url(#filter0_d)">
<path d="M13.5 0.356934C9.14625 0.356934 5.625 4.26943 5.625 9.10693C5.625 15.6694 13.5 25.3569 13.5 25.3569C13.5 25.3569 21.375 15.6694 21.375 9.10693C21.375 4.26943 17.8537 0.356934 13.5 0.356934ZM13.5 12.2319C11.9475 12.2319 10.6875 10.8319 10.6875 9.10693C10.6875 7.38193 11.9475 5.98193 13.5 5.98193C15.0525 5.98193 16.3125 7.38193 16.3125 9.10693C16.3125 10.8319 15.0525 12.2319 13.5 12.2319Z" fill="#1A69A3"/>
</g>
</g>
<defs>
<filter id="filter0_d" x="1.625" y="0.356934" width="23.75" height="33" filterUnits="userSpaceOnUse" color-interpolation-filters="sRGB">
<feFlood flood-opacity="0" result="BackgroundImageFix"/>
<feColorMatrix in="SourceAlpha" type="matrix" values="0 0 0 0 0 0 0 0 0 0 0 0 0 0 0 0 0 0 127 0"/>
<feOffset dy="4"/>
<feGaussianBlur stdDeviation="2"/>
<feColorMatrix type="matrix" values="0 0 0 0 0 0 0 0 0 0 0 0 0 0 0 0 0 0 0.25 0"/>
<feBlend mode="normal" in2="BackgroundImageFix" result="effect1_dropShadow"/>
<feBlend mode="normal" in="SourceGraphic" in2="effect1_dropShadow" result="shape"/>
</filter>
<clipPath id="clip0">
<rect width="27" height="30" fill="white"/>
</clipPath>
</defs>
</svg>
